<svg id="Layer_1" data-name="Layer 1" xmlns="http://www.w3.org/2000/svg" viewBox="0 0 28.35 28.35"><defs><style>.cls-1{fill:#1e1e1c;}</style></defs><path class="cls-1" d="M7,27.17H9.86a1.32,1.32,0,0,0,1.26-.91H18a1.27,1.27,0,0,0,1.26.91h2.88a2.25,2.25,0,0,0,2.25-2.25V22.83a1.39,1.39,0,0,0-.87-1.3V6.74a1.28,1.28,0,0,0,.91-1.26V3.39A2.25,2.25,0,0,0,22.2,1.14H7A2.25,2.25,0,0,0,4.73,3.39V5.52a1.32,1.32,0,0,0,.91,1.26V21.57a1.34,1.34,0,0,0-.91,1.3V25A2.24,2.24,0,0,0,7,27.17Zm2.88-2.64H7.37V22.79a1.36,1.36,0,0,0-.91-1.26V6.78a1.27,1.27,0,0,0,.91-1.26V3.78h14.4V5.52a1.31,1.31,0,0,0,.9,1.26V21.53a1.35,1.35,0,0,0-1,1.26v1.74H19.2a1.31,1.31,0,0,0-1.26.94H11.12A1.31,1.31,0,0,0,9.86,24.53Zm13.76.39a1.46,1.46,0,0,1-1.46,1.46H19.28a.53.53,0,0,1-.51-.51.56.56,0,0,1,.51-.55h2.88a.4.4,0,0,0,.4-.4V23.07c0-.55.11-.75.59-.79a.57.57,0,0,1,.47.59ZM5.52,3.39A1.46,1.46,0,0,1,7,1.93H22.2a1.46,1.46,0,0,1,1.46,1.46V5.52a.56.56,0,0,1-.51.55.53.53,0,0,1-.51-.55V3.39a.38.38,0,0,0-.4-.4H7a.38.38,0,0,0-.4.4V5.52a.56.56,0,0,1-.51.55.59.59,0,0,1-.55-.55Zm0,19.48A.6.6,0,0,1,6,22.28a.52.52,0,0,1,.59.51v2.13a.38.38,0,0,0,.4.4H9.86a.53.53,0,0,1,0,1.06H7a1.46,1.46,0,0,1-1.46-1.46Z"/><path class="cls-1" d="M20.82,13.56V5.36A.37.37,0,0,0,20.43,5H8.75a.37.37,0,0,0-.39.39v8.2a.38.38,0,0,0,.39.4H20.43A.4.4,0,0,0,20.82,13.56ZM20,13.17H9.15V5.75H20Z"/><path class="cls-1" d="M10.49,15a1,1,0,1,0,1,1A1,1,0,0,0,10.49,15Zm0,1.23a.2.2,0,0,1,0-.4.2.2,0,0,1,0,.4Z"/><path class="cls-1" d="M10.49,18a1,1,0,1,0,0,2,1,1,0,0,0,0-2Zm0,1.18a.19.19,0,0,1-.2-.19.19.19,0,0,1,.2-.2.18.18,0,0,1,.19.2A.18.18,0,0,1,10.49,19.16Z"/><path class="cls-1" d="M11.47,21.92a1,1,0,0,0-2,0,1,1,0,0,0,1,1A1,1,0,0,0,11.47,21.92Zm-1.18,0a.19.19,0,0,1,.2-.19.18.18,0,0,1,.19.19.18.18,0,0,1-.19.2A.21.21,0,0,1,10.29,21.92Z"/><path class="cls-1" d="M18.69,15a1,1,0,1,0,1,1A1,1,0,0,0,18.69,15Zm0,1.23a.2.2,0,1,1,.2-.2A.19.19,0,0,1,18.69,16.21Z"/><path class="cls-1" d="M18.69,18a1,1,0,1,0,1,1A1,1,0,0,0,18.69,18Zm0,1.18a.19.19,0,0,1-.2-.19.2.2,0,0,1,.4,0A.19.19,0,0,1,18.69,19.16Z"/><path class="cls-1" d="M18.69,20.94a1,1,0,0,0,0,2,1,1,0,1,0,0-2Zm0,1.18a.19.19,0,0,1-.2-.2.2.2,0,0,1,.4,0A.19.19,0,0,1,18.69,22.12Z"/><path class="cls-1" d="M14.59,16.64A2.33,2.33,0,1,0,16.92,19,2.31,2.31,0,0,0,14.59,16.64Zm0,3.86A1.54,1.54,0,0,1,13.05,19a1.54,1.54,0,1,1,1.54,1.53Z"/></svg>