<svg id="Layer_1" data-name="Layer 1" xmlns="http://www.w3.org/2000/svg" viewBox="0 0 28.35 28.35"><defs><style>.cls-1{fill:#1e1e1c;}</style></defs><path class="cls-1" d="M27.11,22.84H25.25a2.62,2.62,0,0,1-1.85-.76,3.46,3.46,0,0,0-2.47-1H17.27a1.79,1.79,0,0,0-1.79,1.79,1.92,1.92,0,0,0,.24.9H14.33l-3.08-3.08a1.71,1.71,0,0,0-2.92,1.18v0a1.72,1.72,0,0,0,.5,1.21l3.58,3.58a2.16,2.16,0,0,0,1.58.65H27.11a.45.45,0,0,0,.45-.44V23.29A.45.45,0,0,0,27.11,22.84Zm-.44,3.58H14A1.34,1.34,0,0,1,13,26L9.46,22.45a.85.85,0,0,1-.24-.6.79.79,0,0,1,.23-.57.85.85,0,0,1,.58-.23.87.87,0,0,1,.59.24l3.2,3.21a.48.48,0,0,0,.32.13H20.4a.45.45,0,1,0,0-.89H17.27a.9.9,0,0,1,0-1.79h3.66a2.55,2.55,0,0,1,1.84.76,3.5,3.5,0,0,0,2.48,1h1.42Z"/><path class="cls-1" d="M11.14,9.42a2.88,2.88,0,0,0,0,1.67,2.18,2.18,0,0,0-.56,1.46v2.69a1.34,1.34,0,0,0,1.34,1.34h.9v4a.46.46,0,0,0,.13.32l.89.89a.45.45,0,0,0,.64,0l.89-.89a.42.42,0,0,0,.13-.32v-4h.9a1.34,1.34,0,0,0,1.34-1.34V12.55a2.22,2.22,0,0,0-.55-1.45,3,3,0,0,0,.1-.78,3.36,3.36,0,0,0-.14-1A1.54,1.54,0,0,0,19,8.26a1.4,1.4,0,0,0,0-.41V6a4,4,0,0,0-1.18-2.84L16.4,1.65A4,4,0,0,0,13.55.47H1.17A.45.45,0,0,0,.72.92V5.84a.45.45,0,0,0,.45.45H2.45A4.87,4.87,0,0,1,6,7.73a5.73,5.73,0,0,0,4.08,1.69Zm2.33,0A1.56,1.56,0,0,0,15,8.25a2.21,2.21,0,0,1,1.4,2.07c0,.06,0,.11,0,.17a2.22,2.22,0,0,0-.88-.17H12.8a2.23,2.23,0,0,0-.88.18,1.1,1.1,0,0,1,0-.18,2.3,2.3,0,0,1,.19-.9Zm2.46-1.68a3.18,3.18,0,0,0-1-.46,1.54,1.54,0,0,0-1.45-1H11.23a1.12,1.12,0,0,1-1.12-1.12h0a1.12,1.12,0,0,1,1.12-1.12H13.4a1.31,1.31,0,0,1,.95.4l1.19,1.18a1.37,1.37,0,0,1,.39,1ZM14.59,20.42l-.45.45-.45-.45V16.58h.9Zm2.23-7.87v2.69a.44.44,0,0,1-.44.44H11.9a.44.44,0,0,1-.44-.44V12.55a1.34,1.34,0,0,1,1.34-1.34h2.68a1.33,1.33,0,0,1,.62.16,2.2,2.2,0,0,1-.89.9,1.34,1.34,0,0,0-.62-.17h-.9a1.35,1.35,0,0,0,0,2.69h.9a1.34,1.34,0,0,0,1.34-1.34,1.24,1.24,0,0,0-.1-.5,3.14,3.14,0,0,0,.9-.88A1.32,1.32,0,0,1,16.82,12.55Zm-1.78.9a.45.45,0,0,1-.45.44h-.9a.42.42,0,0,1-.44-.4.32.32,0,0,1,0-.17,3,3,0,0,0,1.74,0ZM2.51,5.39H1.62v-4H13.55a3.14,3.14,0,0,1,2.22.92l1.48,1.48A3.1,3.1,0,0,1,18.17,6V7.85a.67.67,0,0,1-.67.68.68.68,0,0,1-.68-.68V6.58A2.19,2.19,0,0,0,16.17,5L15,3.81a2.23,2.23,0,0,0-1.58-.65H11.23a2,2,0,0,0-2,2h0a2,2,0,0,0,2,2h2.25a.68.68,0,0,1,0,1.35H10.08A4.83,4.83,0,0,1,6.64,7.1,5.79,5.79,0,0,0,2.51,5.39Z"/></svg>