<svg id="Layer_1" data-name="Layer 1" xmlns="http://www.w3.org/2000/svg" viewBox="0 0 28.35 28.35"><defs><style>.cls-1{fill:#1e1e1c;}</style></defs><path class="cls-1" d="M16.43,16.7V10.52h3.93c.24,0,.32-.21.45-.33h0c.12-.21.65-1,2.08-3.31a1.53,1.53,0,0,0,.78-1.36,1.58,1.58,0,0,0-.78-1.35L20.81.9c-.13-.16-.21-.33-.45-.33H8.74a.43.43,0,0,0-.37.21L6.2,4.22a1.53,1.53,0,0,0-.74,1.35,1.5,1.5,0,0,0,.82,1.35l2.13,3.39a.4.4,0,0,0,.33.21h4V27.17a.38.38,0,0,0,.41.41H16a.38.38,0,0,0,.41-.41V19.72M6.89,4.87H9.47V6.22H6.89c-.32,0-.57-.25-.57-.7A.58.58,0,0,1,6.89,4.87Zm5-.37h0V6.59a.81.81,0,0,1-.82.74.82.82,0,0,1-.82-.82v-2a.8.8,0,0,1,.82-.73A.83.83,0,0,1,11.89,4.5Zm10.47.37a.65.65,0,0,1,.49.65c0,.86-.94.66-1.06.7H19.66V4.87Zm-3.52-.29V6.51a.82.82,0,0,1-.82.82.76.76,0,0,1-.77-.66c0-.16,0-1.92,0-2.13a.8.8,0,0,1,.82-.73A.77.77,0,0,1,18.84,4.58ZM16.43,6.22H12.75V4.87h3.68Zm0,12.69v-1.4m-.82,9.25h-2V10.52h2ZM20.15,9.7H9L7.35,7H9.6a1.67,1.67,0,0,0,1.51,1.1A1.57,1.57,0,0,0,12.62,7h3.89A1.67,1.67,0,0,0,18,8.14,1.58,1.58,0,0,0,19.54,7h2.21ZM8.94,1.39H20.11l1.72,2.66H19.58a1.6,1.6,0,0,0-3,0H12.66A1.61,1.61,0,0,0,11.15,3,1.58,1.58,0,0,0,9.64,4H7.35Z"/></svg>