<svg xmlns="http://www.w3.org/2000/svg" width="18" height="20" viewBox="0 0 18 20">
  <path id="Icon-user" d="M1241.2,35.091V33.07a3.144,3.144,0,0,0-3.15-3.131h-8.1a3.137,3.137,0,0,0-2.231.921,3.1,3.1,0,0,0-.919,2.21v2.021a.9.9,0,1,1-1.8,0V33.07a4.949,4.949,0,0,1,4.95-4.949h8.1A4.955,4.955,0,0,1,1243,33.07v2.021a.9.9,0,1,1-1.8,0Zm-12.15-14.142A4.95,4.95,0,1,1,1234,25.9,4.955,4.955,0,0,1,1229.05,20.949Zm1.8,0a3.15,3.15,0,1,0,3.15-3.131A3.144,3.144,0,0,0,1230.85,20.949Z" transform="translate(-1225 -16)" fill="#004f83"/>
</svg>
