<svg xmlns="http://www.w3.org/2000/svg" width="20" height="20" viewBox="0 0 20 20">
  <path id="Icon-basket" d="M-1868.236,1648a2.013,2.013,0,0,1-1.93-1.511l-2.8-10.529a1.049,1.049,0,0,1,.17-.893.994.994,0,0,1,.794-.4h1.421l3.712-6.664,1.736,1.018-3.146,5.646h10.553l-3.145-5.646,1.736-1.018,3.712,6.664h1.42a1,1,0,0,1,.8.4,1.044,1.044,0,0,1,.169.892l-2.8,10.529a2.015,2.015,0,0,1-1.93,1.514Zm0-2.052h10.471v0l2.454-9.233h-15.379Zm6.236-2.087v-5h2v5Zm-4,0v-5h2v5Z" transform="translate(1873 -1628)" fill="#004f83"/>
</svg>
