<svg id="Layer_1" data-name="Layer 1" xmlns="http://www.w3.org/2000/svg" viewBox="0 0 28.35 28.35"><defs><style>.cls-1{fill:#1e1e1c;}</style></defs><path class="cls-1" d="M6.2,8.72H8.44v2.92a1.08,1.08,0,0,0,1.08,1.08H11L5.44,27a.4.4,0,1,0,.76.28l2.52-6.41,3.37,2.36v3.93a.4.4,0,0,0,.8,0V23.21l3.36-2.36,2.52,6.41a.4.4,0,0,0,.76-.28l-5.6-14.26h1.52a1.08,1.08,0,0,0,1.08-1.08V8.72h2a1.36,1.36,0,0,0,1.37-1.36V6.71h2.12a.38.38,0,0,0,.4-.4V3.51a.38.38,0,0,0-.4-.4H19.94V2.47a1.3,1.3,0,0,0-1.33-1.36H6.2A1.16,1.16,0,0,0,5,2.27V7.6A1.15,1.15,0,0,0,6.2,8.72ZM9,20.09l2.89-7.37h.16v9.53Zm6.93,0-3,2.16V12.72h.16Zm-.2-8.45a.27.27,0,0,1-.28.28h-6a.27.27,0,0,1-.28-.28V8.72h6.53ZM21.7,3.91v2H20v-2ZM5.84,2.27a.36.36,0,0,1,.36-.36H18.61a.55.55,0,0,1,.56.56V7.36a.55.55,0,0,1-.56.56H6.2a.36.36,0,0,1-.36-.36Z"/><path class="cls-1" d="M12.53,6.75a1.84,1.84,0,0,0,0-3.68,1.87,1.87,0,0,0-1.85,1.84A1.84,1.84,0,0,0,12.53,6.75Zm0-2.88a1,1,0,1,1-1,1A1,1,0,0,1,12.53,3.87Z"/><path class="cls-1" d="M24.46,3.48a.15.15,0,0,0-.23,0,.13.13,0,0,0-.05.11.15.15,0,0,0,.05.12,1.81,1.81,0,0,1,0,2.55.15.15,0,0,0,0,.23.17.17,0,0,0,.23,0A2.13,2.13,0,0,0,24.46,3.48Z"/><path class="cls-1" d="M26.38,5a3.41,3.41,0,0,0-1-2.42.16.16,0,0,0-.23.23A3.08,3.08,0,0,1,26.05,5a3,3,0,0,1-.91,2.19.17.17,0,0,0-.05.12.16.16,0,0,0,.05.11.15.15,0,0,0,.23,0A3.37,3.37,0,0,0,26.38,5Z"/><path class="cls-1" d="M26.25,8.28a4.68,4.68,0,0,0,0-6.59.16.16,0,0,0-.24,0,.17.17,0,0,0,0,.23A4.33,4.33,0,0,1,26,8a.19.19,0,0,0,0,.12.17.17,0,0,0,0,.12A.18.18,0,0,0,26.25,8.28Z"/></svg>