<svg id="Layer_1" data-name="Layer 1" xmlns="http://www.w3.org/2000/svg" viewBox="0 0 28.35 28.35"><defs><style>.cls-1{fill:#1e1e1c;}</style></defs><path class="cls-1" d="M8.45,27.29V.71A.38.38,0,0,0,8,.3H4A.38.38,0,0,0,3.6.71V27.29a.39.39,0,0,0,.41.42H8.08A.38.38,0,0,0,8.45,27.29Zm-.83-.41H4.43V1.13H7.67V26.88Z"/><path class="cls-1" d="M5.38,25.18H6.71a.4.4,0,0,0,.42-.42.39.39,0,0,0-.42-.41H5.38a.38.38,0,0,0-.41.41A.39.39,0,0,0,5.38,25.18Z"/><path class="cls-1" d="M5.38,21.6H6.71a.39.39,0,0,0,.42-.41.4.4,0,0,0-.42-.42H5.38a.39.39,0,0,0-.41.42A.38.38,0,0,0,5.38,21.6Z"/><path class="cls-1" d="M5.38,18H6.71a.42.42,0,1,0,0-.83H5.38a.42.42,0,0,0,0,.83Z"/><path class="cls-1" d="M5.38,14.42H6.71A.4.4,0,0,0,7.13,14a.39.39,0,0,0-.42-.41H5.38A.38.38,0,0,0,5,14,.39.39,0,0,0,5.38,14.42Z"/><path class="cls-1" d="M5.38,10.85H6.71a.4.4,0,0,0,.42-.42A.39.39,0,0,0,6.71,10H5.38a.38.38,0,0,0-.41.41A.39.39,0,0,0,5.38,10.85Z"/><path class="cls-1" d="M5.38,7.23H6.71a.39.39,0,0,0,.42-.41.4.4,0,0,0-.42-.42H5.38A.39.39,0,0,0,5,6.82.38.38,0,0,0,5.38,7.23Z"/><path class="cls-1" d="M5.38,3.66H6.71a.39.39,0,0,0,.42-.41.4.4,0,0,0-.42-.42H5.38A.39.39,0,0,0,5,3.25.38.38,0,0,0,5.38,3.66Z"/><path class="cls-1" d="M25.65,27.13l-3.78-9.8h1.49a.4.4,0,0,0,.42-.42v-.08A4.21,4.21,0,0,0,22,13.55v-2h2.74a.39.39,0,0,0,.41-.42v-7a.38.38,0,0,0-.41-.41H21.37A.38.38,0,0,0,21,4.2V5.57H14.44A.4.4,0,0,0,14,6V6.9H12.44a.39.39,0,0,0-.41.42V9.85a.39.39,0,0,0,.41.42H14v.91a.4.4,0,0,0,.42.42h2.74v2a4.15,4.15,0,0,0-1.71,3.36.4.4,0,0,0,.42.42h1.49l-3.82,9.8a.42.42,0,0,0,.79.29l3.91-10.09h.95v10a.4.4,0,0,0,.42.42.39.39,0,0,0,.41-.42v-10H21L24.9,27.46A.41.41,0,1,0,25.65,27.13ZM21.79,4.62h2.57v1H21.79ZM12.86,9.44V7.73H14V9.44Zm2-3h9.51v4.32H14.85Zm6.35,5.2v1.49a4.24,4.24,0,0,0-3.19,0V11.6Zm1.71,4.9H16.3C16.8,12.59,22.45,12.76,22.91,16.5Z"/><path class="cls-1" d="M19.63,10.27A1.67,1.67,0,1,0,18,8.6,1.64,1.64,0,0,0,19.63,10.27Zm0-2.54a.83.83,0,0,1,0,1.66.83.83,0,0,1-.83-.83A.81.81,0,0,1,19.63,7.73Z"/></svg>