<svg id="Layer_1" data-name="Layer 1" xmlns="http://www.w3.org/2000/svg" viewBox="0 0 28.35 28.35"><defs><style>.cls-1{fill:#1e1e1c;}</style></defs><path class="cls-1" d="M8.23,27.52h15a2.4,2.4,0,0,0,2.39-2.4V2.66A2.39,2.39,0,0,0,23.18.27H8.23A2.39,2.39,0,0,0,5.84,2.66v22.5A2.39,2.39,0,0,0,8.23,27.52ZM6.66,2.66A1.57,1.57,0,0,1,8.23,1.09h15a1.57,1.57,0,0,1,1.57,1.57v22.5a1.57,1.57,0,0,1-1.57,1.57H8.23a1.57,1.57,0,0,1-1.57-1.57Z"/><path class="cls-1" d="M8.31,23.1H23.1a.39.39,0,0,0,.41-.41V4.06a.39.39,0,0,0-.41-.41H8.31a.39.39,0,0,0-.41.41V22.69A.45.45,0,0,0,8.31,23.1ZM8.73,4.48h14V22.27H8.73Z"/><path class="cls-1" d="M15.7,23.55a1.37,1.37,0,1,0,1.37,1.37A1.38,1.38,0,0,0,15.7,23.55Zm0,1.86a.54.54,0,1,1,.54-.53A.55.55,0,0,1,15.7,25.41Z"/><path class="cls-1" d="M15.7,6.58a4.06,4.06,0,0,0-4,4.09c0,1,.74,2.6,2.23,4.79a2.19,2.19,0,0,0-1.41,1.86c0,1.28,1.45,2.27,3.27,2.27S19,18.6,19,17.32a2.13,2.13,0,0,0-1.41-1.86c1.45-2.19,2.23-3.8,2.23-4.79A4.16,4.16,0,0,0,15.7,6.58Zm0,.83A3.27,3.27,0,0,1,19,10.67c0,1.49-2.36,4.79-3.27,6-.9-1.2-3.22-4.5-3.22-6A3.23,3.23,0,0,1,15.7,7.41Zm2.44,9.91c0,.78-1.11,1.44-2.44,1.44s-2.43-.66-2.43-1.44c0-.46.41-.91,1.07-1.2.25.37.83,1.16,1.08,1.45a.44.44,0,0,0,.66,0c.24-.33.78-1.08,1.07-1.45A1.54,1.54,0,0,1,18.14,17.32Z"/><path class="cls-1" d="M15.7,12.57a2.07,2.07,0,1,0,0-4.13,2.1,2.1,0,0,0-2.06,2.07A2.07,2.07,0,0,0,15.7,12.57Zm0-3.34a1.24,1.24,0,1,1-1.23,1.23A1.23,1.23,0,0,1,15.7,9.23Z"/></svg>