<svg id="Layer_1" data-name="Layer 1" xmlns="http://www.w3.org/2000/svg" viewBox="0 0 28.35 28.35"><defs><style>.cls-1{fill:#1e1e1c;}</style></defs><path class="cls-1" d="M24.82,4.29H3.42A2.62,2.62,0,0,0,.8,6.91V19.08A2.63,2.63,0,0,0,3.42,21.7h8.24a3.43,3.43,0,0,1-2.15,4H9a.44.44,0,1,0,0,.88H19.2a.44.44,0,1,0,0-.88h-.46a3.43,3.43,0,0,1-2.16-4h8.24a2.63,2.63,0,0,0,2.62-2.62V6.91A2.62,2.62,0,0,0,24.82,4.29Zm1.67,15.23a1.71,1.71,0,0,1-1.67,1.3H3.42a1.72,1.72,0,0,1-1.67-1.3ZM12.56,21.7h3.12a4.31,4.31,0,0,0,1.37,4H11.19A4.28,4.28,0,0,0,12.56,21.7Zm14-14.79V18.64H1.69V6.91A1.73,1.73,0,0,1,3.42,5.17h21.4A1.74,1.74,0,0,1,26.56,6.91Z"/></svg>