<svg id="Layer_1" data-name="Layer 1" xmlns="http://www.w3.org/2000/svg" viewBox="0 0 28.35 28.35"><defs><style>.cls-1{fill:#1e1e1c;}</style></defs><path class="cls-1" d="M22.06,11.61a.29.29,0,0,0-.1-.23l-.91-.91a.74.74,0,0,0-1,0,.51.51,0,0,1-.71,0l-.18-.18A.47.47,0,0,1,19,10a.45.45,0,0,1,.14-.33l.31-.31A.32.32,0,0,0,19.52,9l-.07-.11-6.81-6.8A3.1,3.1,0,0,0,8.26,6.44l6.8,6.81a.34.34,0,0,0,.46,0h0l.16-.16.15-.15a.47.47,0,0,1,.66,0l.18.18a.5.5,0,0,1,.14.35.51.51,0,0,1-.14.36.72.72,0,0,0,0,1l.91.92a.34.34,0,0,0,.46,0l1.05-1.06,6.78,6.78a.33.33,0,0,0,.23.09.35.35,0,0,0,.23-.09l1.36-1.37a.31.31,0,0,0,0-.46l-6.77-6.77,1-1.05A.29.29,0,0,0,22.06,11.61ZM8.72,2.52a2.44,2.44,0,0,1,3.46,0l6.58,6.57h0l-3.38,3.38h0l-.08.08h0L8.72,6A2.44,2.44,0,0,1,8.72,2.52Zm7.82,9.71,1.89-1.89a1,1,0,0,0,.25.41l.18.18a1.19,1.19,0,0,0,.44.27l-1.9,1.9a1.25,1.25,0,0,0-.27-.44L17,12.48A1,1,0,0,0,16.54,12.23ZM27,19.89l-.91.91-6.55-6.55.91-.91Zm-9.2-4.81-.68-.69a.07.07,0,0,1,0-.1h0l3.36-3.36h0a.06.06,0,0,1,.1,0l.69.68Z"/><path class="cls-1" d="M15.89,10.15a.32.32,0,0,0,.23.1.29.29,0,0,0,.23-.1.32.32,0,0,0,0-.46L10.78,4.12a.33.33,0,0,0-.46.46Z"/><path class="cls-1" d="M8.69,13.13A.32.32,0,0,0,8.92,13a.32.32,0,0,0,0-.46L5.46,9.11a.34.34,0,0,0-.46,0,.32.32,0,0,0,0,.46L8.46,13A.35.35,0,0,0,8.69,13.13Z"/><path class="cls-1" d="M18.77,25.62l1.31,1.3a.29.29,0,0,0,.23.1.28.28,0,0,0,.22-.1l2.29-2.28a.32.32,0,0,0,0-.46l-1.31-1.31a1.45,1.45,0,0,0-1.3-.39l-6.72-6.71,1-1a.33.33,0,0,0,.09-.23.32.32,0,0,0-.09-.23l-.92-.92a.74.74,0,0,0-1,0h0a.5.5,0,0,1-.71,0l-.18-.17a.47.47,0,0,1,0-.66l.31-.31a.41.41,0,0,0,.07-.11.33.33,0,0,0,0-.24.41.41,0,0,0-.07-.11l-4.7-4.7a3.1,3.1,0,0,0-4.38,4.39l4.69,4.69a.32.32,0,0,0,.23.1.29.29,0,0,0,.23-.1l.31-.3a.47.47,0,0,1,.66,0l.18.17a.55.55,0,0,1,.15.36.53.53,0,0,1-.15.36.72.72,0,0,0,0,1l.91.91a.32.32,0,0,0,.23.1.3.3,0,0,0,.23-.1l1.06-1,6.71,6.71A1.44,1.44,0,0,0,18.77,25.62Zm2.28-2.29,1.08,1.08-1.82,1.83-1.08-1.08a.79.79,0,0,1,0-1.12l.71-.71A.8.8,0,0,1,21.05,23.33ZM3.4,7.51a2.46,2.46,0,0,1,3.46,0L11.33,12l-.08.08h0L7.87,15.44h0L3.4,11A2.45,2.45,0,0,1,3.4,7.51Zm5.71,7.6L11,13.23a1,1,0,0,0,.25.41l.18.17a1.07,1.07,0,0,0,.44.27L10,16a1.16,1.16,0,0,0-.27-.44l-.18-.18A1.1,1.1,0,0,0,9.11,15.11ZM10.38,18l-.68-.68a.07.07,0,0,1,0-.1l3.36-3.37h0s.07,0,.1,0l.69.69Zm1.74-.82.91-.91,6.56,6.56-.11.08-.71.71-.09.11Z"/><path class="cls-1" d="M26,1.31a.31.31,0,0,0-.28-.16H22a.32.32,0,0,0-.28.16L19.81,4.55a.31.31,0,0,0,0,.32L21.68,8.1a.31.31,0,0,0,.28.17h3.73A.3.3,0,0,0,26,8.1l1.87-3.23a.31.31,0,0,0,0-.32Zm-.46,6.31H22.15L20.47,4.71,22.15,1.8h3.36l1.67,2.91Z"/><path class="cls-1" d="M23.83,2.79a1.88,1.88,0,1,0,1.88,1.88A1.88,1.88,0,0,0,23.83,2.79Zm0,3.11a1.23,1.23,0,1,1,1.23-1.23A1.24,1.24,0,0,1,23.83,5.9Z"/><path class="cls-1" d="M2.56,25.62,6,27a.27.27,0,0,0,.12,0,.37.37,0,0,0,.2-.07l3-2.28a.31.31,0,0,0,.12-.3l-.49-3.7a.3.3,0,0,0-.2-.25L5.27,19a.33.33,0,0,0-.32,0L2,21.36a.31.31,0,0,0-.12.3l.49,3.7A.33.33,0,0,0,2.56,25.62ZM5.2,19.71,8.3,21l.44,3.33L6.08,26.37,3,25.09l-.44-3.33Z"/><path class="cls-1" d="M4.93,24.77a1.82,1.82,0,0,0,.72.15,1.91,1.91,0,0,0,.73-3.68,1.91,1.91,0,1,0-1.45,3.53Zm-.44-2.24a1.26,1.26,0,0,1,1.17-.78,1.36,1.36,0,0,1,.48.09,1.26,1.26,0,0,1-1,2.33,1.26,1.26,0,0,1-.68-.68A1.23,1.23,0,0,1,4.49,22.53Z"/></svg>