<svg id="Layer_1" data-name="Layer 1" xmlns="http://www.w3.org/2000/svg" viewBox="0 0 28.35 28.35"><defs><style>.cls-1{fill:#1e1e1c;}</style></defs><path class="cls-1" d="M9,27.29a.42.42,0,0,0,.52-.24l4-10.83H14V26.93a.41.41,0,0,0,.81,0V16.22h.6l4,10.83a.42.42,0,0,0,.52.24.41.41,0,0,0,.24-.52L16.32,16.22h.76a.38.38,0,0,0,.41-.4V12h.08a2,2,0,0,0,2-2V5.35a2,2,0,0,0-2-2h-.32V2A1.25,1.25,0,0,0,16,.76H12.86A1.25,1.25,0,0,0,11.61,2V3.33h-.28a2,2,0,0,0-2,2V10a2,2,0,0,0,2,2h.08v3.83a.38.38,0,0,0,.4.4h.76L8.71,26.77A.4.4,0,0,0,9,27.29ZM12.41,2a.45.45,0,0,1,.45-.44H16a.44.44,0,0,1,.44.44V7a.62.62,0,0,1-.6.6H13a.62.62,0,0,1-.61-.6Zm-2.29,8.06V5.35a1.17,1.17,0,0,1,1.17-1.17h.32V7A1.43,1.43,0,0,0,13,8.41h2.82A1.43,1.43,0,0,0,17.25,7V4.18h.28a1.16,1.16,0,0,1,1.16,1.17v4.71a1.17,1.17,0,0,1-1.16,1.17H11.29A1.17,1.17,0,0,1,10.12,10.06Zm2.09,2h4.47v3.42H12.21Z"/><path class="cls-1" d="M14.43,5.71a1.34,1.34,0,0,0,1.33-1.33A1.38,1.38,0,0,0,14.43,3,1.34,1.34,0,0,0,13.1,4.34,1.37,1.37,0,0,0,14.43,5.71Zm0-1.89a.52.52,0,1,1-.53.52A.53.53,0,0,1,14.43,3.82Z"/></svg>