<svg id="Logo" xmlns="http://www.w3.org/2000/svg" width="193" height="30" viewBox="0 0 193 30">
  <path id="Path_62" data-name="Path 62" d="M0,19.34a16.909,16.909,0,0,1,.552-5.1C2.33,8.5,9.044,7.684,14.255,7.684a68.965,68.965,0,0,1,10.332.607V11.9c-2.33-.212-7.6-.486-9.627-.486-6.07,0-8,1.67-8,7.741,0,4.34,1.41,7.467,6.346,7.467,1.686,0,3.4-.121,5.089-.243v-7.1h6.561v9.986a84.353,84.353,0,0,1-10.976.85C6.285,30.116,0,27.839,0,19.34Z" transform="translate(0 -3.958)" fill="#004f83"/>
  <path id="Path_63" data-name="Path 63" d="M58.65,8.884H81.275v3.731H65.21v4.946h9.841V21.02H65.21v5.309H81.4v3.792H58.65Z" transform="translate(-30.174 -4.576)" fill="#004f83"/>
  <path id="Path_64" data-name="Path 64" d="M206.68,8.884H229.3v3.731H213.24v4.946h9.841V21.02H213.24v5.309h16.187v3.792H206.68Z" transform="translate(-106.395 -4.576)" fill="#004f83"/>
  <path id="Path_65" data-name="Path 65" d="M278.15,25.206H265.643l-2.208,4.915h-6.5L267.481,8.884H277.66l10.056,21.237h-7.48Zm-6.959-12.742-4.046,9.071h9.565l-3.955-9.071Z" transform="translate(-132.27 -4.576)" fill="#004f83"/>
  <path id="Path_66" data-name="Path 66" d="M350.46,13.678h-1.348L345,30.03h-9.319l-4.507-16.262h-1.349L327.8,30.121h-5.15L325.6,8.884h10.515l4.047,15.776h1.349l3.954-15.776h10.362l3.281,21.237H352.82Z" transform="translate(-166.105 -4.576)" fill="#004f83"/>
  <path id="Path_67" data-name="Path 67" d="M129.062,12.346c-.12-1.01-1.876-1.644-5.216-1.887-.558-.04-1.16-.063-1.777-.079a10.068,10.068,0,0,0-2.343-3.007c.168-.621.322-1.225.447-1.794.714-3.247.6-5.1-.343-5.5s-2.661.666-4.543,3.416c-.3.433-.605.9-.918,1.389a10.391,10.391,0,0,0-2.47-.052,10.215,10.215,0,0,0-2.142.48c-.472-.458-.949-.924-1.388-1.319-2.477-2.236-4.4-2.876-5.221-2.267s-.5,2.434.96,5.426c.238.487.514,1,.8,1.528a10.183,10.183,0,0,0-1.183,1.884h0c-.01.021-.019.043-.028.066a10.116,10.116,0,0,0-.668,1.965c-.646.17-1.267.345-1.842.527-3.189,1.01-4.746,2.034-4.626,3.044s1.911,1.954,5.251,2.2c.5.036,1.03.065,1.579.088a10.1,10.1,0,0,0,1.584,2.809l0,0c.008.01.051.066.134.155a10.256,10.256,0,0,0,1.521,1.433c-.125.5-.24.99-.342,1.454-.714,3.246-.31,5.219.631,5.62s2.373-.79,4.256-3.538c.29-.424.587-.9.884-1.372a9.6,9.6,0,0,0,4.687-.7c.346.338.695.681,1.026.981,2.478,2.237,4.15,3.062,4.971,2.455s.75-2.621-.708-5.613c-.22-.451-.465-.928-.721-1.415a10.176,10.176,0,0,0,.678-1.053c.059-.1.088-.159.093-.172h0a10.031,10.031,0,0,0,1-3.38c.484-.14.953-.279,1.393-.419C127.662,14.69,129.182,13.356,129.062,12.346Zm-7.769-1.713a9.256,9.256,0,0,1,1,3.33c0,.047.009.093.014.14a3.112,3.112,0,0,1-.535,1.371c-.261.062-.532.121-.8.182a10.805,10.805,0,0,0-1.186-3.026c.14-.119.277-.241.412-.369A3.855,3.855,0,0,0,121.293,10.634Zm-.99,6.3a8.049,8.049,0,0,1-.849.51c-.071-.118-.137-.232-.209-.351.359-.079.705-.163,1.052-.246C120.3,16.884,120.3,16.9,120.3,16.938ZM106.452,14.4a10.2,10.2,0,0,0,2.621.775c-.291.742-.567,1.479-.82,2.2-.786.05-1.544.082-2.287.105A10.076,10.076,0,0,1,106.452,14.4Zm6.535,4.859a17.889,17.889,0,0,1-4.154-.165c.079-.218.151-.432.233-.653,1.239-.055,2.508-.143,3.806-.283Zm0-8.84c.711.872,1.424,1.758,2.136,2.7.193.256.359.5.547.76a14.517,14.517,0,0,1-2.359.492l-.412-3.94C112.927,10.429,112.964,10.421,112.99,10.417Zm-3.6,3.983a9.321,9.321,0,0,1-2.667-.787A14.88,14.88,0,0,1,108.747,10a7.27,7.27,0,0,0,2.416.52c-.48.952-.951,1.928-1.393,2.949C109.636,13.781,109.517,14.09,109.39,14.4Zm1.475-.464c.417-.963.843-1.891,1.273-2.8l.347,3.323a15.631,15.631,0,0,1-1.85.041C110.715,14.309,110.782,14.127,110.865,13.936Zm1.706,1.345.178,1.7c-1.106.125-2.2.232-3.256.315.253-.655.541-1.33.816-2A15.708,15.708,0,0,0,112.571,15.281Zm.829-.085a15.04,15.04,0,0,0,2.783-.607c.422.585.864,1.175,1.259,1.75-1.241.205-2.539.387-3.865.549Zm3.922-1.046a10.078,10.078,0,0,0,1.789-.993,10.323,10.323,0,0,1,1.04,2.68q-.742.152-1.52.294Q118,15.146,117.322,14.149Zm-.488-.683c-.249-.351-.488-.7-.753-1.052-.6-.8-1.22-1.551-1.84-2.283a7.289,7.289,0,0,0,1.733-.83,14.91,14.91,0,0,1,2.713,3.139A9.17,9.17,0,0,1,116.834,13.466Zm-.682-5.331q-.068.058-.135.111l-.139-.114a11.02,11.02,0,0,0-1.651-1.094c.14-.252.28-.51.42-.752a6.221,6.221,0,0,1,1.327.051,1.544,1.544,0,0,1,.693.876C116.709,7.5,116.536,7.808,116.152,8.135Zm-.844.6a6.41,6.41,0,0,1-1.664.694c-.144-.165-.287-.339-.431-.5.207-.4.414-.8.621-1.182A10.361,10.361,0,0,1,115.308,8.74Zm-2.683-.965-.063-.6c.108.038.221.089.332.133C112.8,7.463,112.714,7.617,112.625,7.775ZM111.582,9.7a6.571,6.571,0,0,1-2.3-.386,10.033,10.033,0,0,1,1.523-1.485q.54.608,1.089,1.254C111.79,9.287,111.687,9.5,111.582,9.7Zm-1.319-2.469a10.578,10.578,0,0,0-1.694,1.647l-.076.093-.147-.078c-.442-.241-.676-.508-.693-.8a1.473,1.473,0,0,1,.451-.947,6.42,6.42,0,0,1,1.758-.359C109.994,6.938,110.129,7.089,110.262,7.235Zm-2.317,2.388.033.018a15.735,15.735,0,0,0-2.007,3.58c-.075-.043-.15-.088-.225-.133-1.574-.961-1.341-1.958-1.278-2.15a9.409,9.409,0,0,1,2.363-3.073,1.507,1.507,0,0,0-.01.286A1.84,1.84,0,0,0,107.945,9.623Zm-.065,8.861c-.044.134-.082.262-.124.4-.2-.047-.408-.092-.614-.15-.236-.066-.431-.148-.637-.226C106.957,18.5,107.413,18.5,107.88,18.484Zm.67,1.4a18.257,18.257,0,0,0,4.523.2l.291,2.783a16.062,16.062,0,0,1-4.4-.366,9.441,9.441,0,0,1-1.071-.321c-.019-.028-.032-.06-.051-.09Q108.158,21.023,108.549,19.887Zm5.15-1.827c1.525-.192,3.011-.437,4.419-.723.128.193.246.381.37.572a17.655,17.655,0,0,1-4.673,1.263Zm5.924-6.4c-.091.085-.183.169-.274.25A15.8,15.8,0,0,0,116.655,8.8l.038-.033a1.836,1.836,0,0,0,.8-1.673,1.554,1.554,0,0,0-.113-.387,9.508,9.508,0,0,1,1.495.988,9.4,9.4,0,0,1,1.54,1.569l0,0C120.438,9.3,121.089,10.284,119.623,11.66ZM119.583.653c.436.186.805,1.6.094,4.844-.1.475-.229.98-.36,1.495a10.185,10.185,0,0,0-3.946-1.915q.363-.582.721-1.106C117.972,1.226,119.147.468,119.583.653Zm-6.266,5.933c-.031-.013-.063-.034-.094-.046.049-.015.093-.02.142-.033Zm.233-.962a7.5,7.5,0,0,0-1.115.329l-.034-.33A9.627,9.627,0,0,1,113.549,5.625ZM111.74,7.331l-.085-.089c.023-.014.048-.032.071-.046Zm-.169-1.621.038.363a7.52,7.52,0,0,0-1.185-.115l0,0A9.46,9.46,0,0,1,111.571,5.709Zm-7,1.25c-1.457-2.987-1.43-4.45-1.05-4.731s1.7.183,4.174,2.415c.354.32.719.67,1.088,1.038a10.205,10.205,0,0,0-2.152,1.275l-.028.018,0,0a10.2,10.2,0,0,0-1.356,1.309C105.011,7.832,104.779,7.383,104.573,6.959Zm.737,6.832q.189.115.379.221a10.493,10.493,0,0,0-.552,3.493c-.13,0-.264.006-.392.007a3.509,3.509,0,0,1-1.118-1.494c-.005-.044-.01-.089-.015-.132a9.2,9.2,0,0,1,.294-3.457A3.878,3.878,0,0,0,105.31,13.791Zm-3.491,3.643c-3.335-.243-4.583-.874-4.64-1.341s.995-1.494,4.18-2.5c.482-.153,1-.3,1.532-.454a9.907,9.907,0,0,0,.174,4.356C102.637,17.48,102.215,17.463,101.819,17.434Zm3.9,3.43a9.293,9.293,0,0,1-1.421-2.384c.114,0,.221.009.336.011a6.568,6.568,0,0,0,.791.468,17.466,17.466,0,0,0,1.084,2.54A4.395,4.395,0,0,1,105.722,20.865Zm.749-1.476c.142.046.289.092.443.135.2.057.4.1.594.147-.127.415-.246.82-.359,1.221C106.879,20.361,106.646,19.84,106.471,19.389Zm4.293,6.7c-1.879,2.745-3.169,3.452-3.6,3.267s-.691-1.552.021-4.8c.077-.352.173-.725.271-1.1a10.236,10.236,0,0,0,3.118,1.331c.309.074.633.1.952.145C111.265,25.331,111.01,25.726,110.764,26.086Zm-1.838-2.748a16.752,16.752,0,0,0,4.524.351l.056.536A9.389,9.389,0,0,1,108.926,23.338ZM113.9,20a18.119,18.119,0,0,0,5.043-1.382q.543.859,1.019,1.678c-.039.136-.073.273-.121.407a8.637,8.637,0,0,1-1.419.826,16.025,16.025,0,0,1-4.231,1.254Zm.377,3.607a16.7,16.7,0,0,0,4.357-1.265,9.354,9.354,0,0,1-4.3,1.8Zm6.931-1c1.456,2.986,1.53,4.375,1.15,4.656s-1.8-.108-4.274-2.342c-.268-.243-.554-.517-.836-.784a10.2,10.2,0,0,0,2.664-1.78l.023.016c.022-.032.044-.065.065-.1.239-.226.443-.485.659-.733C120.854,21.9,121.042,22.253,121.209,22.6Zm-1.331-4.436c.153-.081.3-.163.439-.246-.007.272-.031.578-.066.894C120.13,18.594,120.006,18.379,119.879,18.161Zm1.385,1.093a3.545,3.545,0,0,1-.281.391,11.532,11.532,0,0,0,.174-2.307,6.214,6.214,0,0,0,.964-.949l.1-.028A9.247,9.247,0,0,1,121.264,19.254Zm1.9-4.138a10.175,10.175,0,0,0-.038-1.237,10.06,10.06,0,0,0-.842-3c.52.021,1.031.046,1.507.08,3.334.243,4.6,1,4.654,1.464s-1.01,1.371-4.2,2.379C123.9,14.907,123.532,15.012,123.159,15.116Z" transform="translate(-49.704 0)" fill="#004f83"/>
  <path id="Path_68" data-name="Path 68" d="M166.353,30.121h-6.561V12.949h-8.921V8.884h24.372v4.065h-8.89Z" transform="translate(-77.666 -4.576)" fill="#004f83"/>
</svg>
