<svg xmlns="http://www.w3.org/2000/svg" width="75.875" height="70" viewBox="0 0 75.875 70">
  <path id="Path_524" data-name="Path 524" d="M172.411,28.807c-.28-2.356-4.377-3.837-12.17-4.4-1.3-.094-2.708-.147-4.145-.184a23.492,23.492,0,0,0-5.466-7.015c.392-1.449.751-2.859,1.042-4.185,1.666-7.576,1.4-11.893-.8-12.828s-6.209,1.554-10.6,7.971c-.693,1.011-1.413,2.109-2.141,3.242a24.246,24.246,0,0,0-5.764-.121,23.835,23.835,0,0,0-5,1.121c-1.1-1.068-2.215-2.155-3.238-3.078-5.78-5.217-10.268-6.711-12.183-5.29s-1.161,5.679,2.24,12.66c.555,1.136,1.2,2.344,1.864,3.565a23.76,23.76,0,0,0-2.76,4.4l-.007,0c-.023.049-.044.1-.066.154a23.6,23.6,0,0,0-1.559,4.584c-1.508.4-2.956.8-4.3,1.23-7.442,2.357-11.074,4.746-10.794,7.1s4.46,4.558,12.253,5.125c1.163.084,2.4.151,3.684.2a23.566,23.566,0,0,0,3.7,6.555l-.007.006c.019.022.119.153.312.362a23.93,23.93,0,0,0,3.549,3.343c-.291,1.172-.561,2.311-.8,3.393-1.666,7.573-.723,12.178,1.473,13.114s5.538-1.842,9.93-8.255c.676-.99,1.368-2.09,2.062-3.2a22.4,22.4,0,0,0,10.936-1.629c.808.788,1.621,1.589,2.394,2.289,5.782,5.22,9.684,7.145,11.6,5.727s1.749-6.116-1.653-13.1c-.513-1.052-1.084-2.165-1.681-3.3a23.749,23.749,0,0,0,1.583-2.457c.137-.23.205-.372.217-.4l-.007,0a23.405,23.405,0,0,0,2.344-7.886c1.128-.326,2.223-.652,3.25-.978C169.144,34.276,172.69,31.164,172.411,28.807Zm-18.127-4a21.6,21.6,0,0,1,2.331,7.77c.01.109.022.217.032.326a7.262,7.262,0,0,1-1.247,3.2c-.608.145-1.241.283-1.87.424a25.213,25.213,0,0,0-2.766-7.062c.326-.278.646-.563.961-.86A8.994,8.994,0,0,0,154.283,24.811Zm-2.31,14.711a18.779,18.779,0,0,1-1.981,1.19c-.167-.274-.319-.542-.488-.818.837-.185,1.646-.38,2.455-.574C151.963,39.4,151.969,39.437,151.973,39.522Zm-32.32-5.927A23.81,23.81,0,0,0,125.77,35.4c-.679,1.732-1.323,3.452-1.913,5.145-1.834.116-3.6.191-5.336.245A23.51,23.51,0,0,1,119.654,33.595ZM134.9,44.933a41.74,41.74,0,0,1-9.693-.384c.184-.509.353-1.007.544-1.523,2.89-.129,5.851-.333,8.881-.661Zm.009-20.627c1.66,2.035,3.323,4.1,4.984,6.307.45.6.837,1.178,1.276,1.773a33.874,33.874,0,0,1-5.5,1.149l-.961-9.194C134.762,24.333,134.849,24.314,134.91,24.306Zm-8.4,9.294a21.748,21.748,0,0,1-6.223-1.837,34.721,34.721,0,0,1,4.723-8.431,16.963,16.963,0,0,0,5.638,1.214c-1.119,2.222-2.219,4.5-3.25,6.881C127.082,32.155,126.806,32.875,126.509,33.6Zm3.442-1.084c.972-2.246,1.968-4.413,2.97-6.535l.81,7.753a36.471,36.471,0,0,1-4.316.1C129.6,33.387,129.758,32.962,129.95,32.517Zm3.981,3.137.415,3.968c-2.581.291-5.123.541-7.6.735.591-1.528,1.263-3.1,1.9-4.664A36.652,36.652,0,0,0,133.931,35.654Zm1.935-.2a35.1,35.1,0,0,0,6.494-1.416c.984,1.365,2.017,2.743,2.938,4.083-2.9.479-5.925.9-9.019,1.28Zm9.15-2.442a23.516,23.516,0,0,0,4.175-2.318,24.086,24.086,0,0,1,2.428,6.253q-1.732.356-3.547.687Q146.61,35.339,145.016,33.014Zm-1.139-1.593c-.581-.818-1.14-1.637-1.756-2.455-1.406-1.867-2.846-3.618-4.292-5.326a17.008,17.008,0,0,0,4.043-1.937,34.79,34.79,0,0,1,6.331,7.323A21.4,21.4,0,0,1,143.878,31.421Zm-1.592-12.439q-.158.135-.316.26l-.325-.265a25.714,25.714,0,0,0-3.853-2.553c.326-.589.654-1.189.98-1.754a14.516,14.516,0,0,1,3.1.118,3.6,3.6,0,0,1,1.617,2.044C143.586,17.5,143.182,18.219,142.286,18.981Zm-1.969,1.411a14.957,14.957,0,0,1-3.883,1.62c-.335-.386-.67-.791-1-1.171.483-.944.966-1.857,1.45-2.757A24.176,24.176,0,0,1,140.317,20.392Zm-6.26-2.252-.146-1.4c.253.089.515.207.774.31C134.475,17.413,134.266,17.773,134.057,18.141Zm-2.435,4.5a15.332,15.332,0,0,1-5.359-.9,23.412,23.412,0,0,1,3.554-3.466q1.259,1.418,2.541,2.927C132.11,21.668,131.869,22.168,131.623,22.643Zm-3.078-5.761a24.682,24.682,0,0,0-3.954,3.843c-.06.072-.119.144-.177.217-.114-.058-.228-.119-.342-.181-1.032-.562-1.577-1.186-1.617-1.856a3.437,3.437,0,0,1,1.052-2.21,14.98,14.98,0,0,1,4.1-.837C127.918,16.188,128.233,16.541,128.545,16.882Zm-5.407,5.571.078.042a36.715,36.715,0,0,0-4.683,8.353c-.176-.1-.349-.2-.525-.311-3.672-2.241-3.13-4.569-2.982-5.017a21.953,21.953,0,0,1,5.513-7.169,3.516,3.516,0,0,0-.024.667C120.6,20.393,121.478,21.55,123.137,22.453Zm-.152,20.677c-.1.312-.19.612-.289.922-.477-.11-.952-.215-1.433-.35-.552-.155-1-.346-1.487-.527C120.832,43.169,121.9,43.157,122.985,43.129Zm1.562,3.272a42.6,42.6,0,0,0,10.554.455l.679,6.494a37.478,37.478,0,0,1-10.273-.854,22.028,22.028,0,0,1-2.5-.749c-.045-.066-.075-.141-.12-.209Q123.634,49.053,124.548,46.4Zm12.016-4.264c3.558-.449,7.026-1.02,10.31-1.686.3.451.573.888.864,1.334a41.2,41.2,0,0,1-10.9,2.946Zm13.822-14.931c-.212.2-.426.395-.64.582a36.868,36.868,0,0,0-6.286-7.265l.09-.076c1.44-1.223,2.065-2.537,1.86-3.9a3.626,3.626,0,0,0-.264-.9,22.187,22.187,0,0,1,3.488,2.3,21.933,21.933,0,0,1,3.594,3.66l0,0C152.288,21.706,153.806,23.995,150.386,27.206Zm-.094-25.683c1.016.435,1.879,3.739.22,11.3-.245,1.108-.534,2.286-.839,3.488a23.764,23.764,0,0,0-9.207-4.469q.846-1.357,1.683-2.581C146.535,2.86,149.275,1.093,150.292,1.523ZM135.671,15.367c-.071-.029-.147-.08-.219-.108.114-.035.218-.046.331-.078C135.746,15.245,135.709,15.3,135.671,15.367Zm.543-2.244a17.488,17.488,0,0,0-2.6.768l-.08-.769A22.462,22.462,0,0,1,136.214,13.124Zm-4.221,3.98c-.067-.071-.133-.137-.2-.208.054-.033.111-.075.167-.108Zm-.4-3.783.088.846a17.546,17.546,0,0,0-2.765-.269l-.008-.009A22.073,22.073,0,0,1,131.6,13.322Zm-16.329,2.916c-3.4-6.969-3.336-10.383-2.45-11.039s3.968.427,9.738,5.634c.827.746,1.677,1.564,2.539,2.422a23.812,23.812,0,0,0-5.021,2.975l-.066.043,0,.006a23.81,23.81,0,0,0-3.163,3.054C116.291,18.273,115.75,17.226,115.268,16.238Zm1.721,15.942q.44.268.884.515a24.484,24.484,0,0,0-1.288,8.15c-.3.006-.615.015-.914.017a8.187,8.187,0,0,1-2.609-3.486c-.012-.1-.024-.207-.035-.308A21.474,21.474,0,0,1,113.712,29,9.049,9.049,0,0,0,116.989,32.179Zm-8.146,8.5c-7.782-.568-10.694-2.04-10.826-3.128s2.321-3.486,9.754-5.837c1.124-.356,2.331-.71,3.575-1.06a23.116,23.116,0,0,0,.406,10.164C110.752,40.787,109.768,40.747,108.843,40.68Zm9.108,8a21.684,21.684,0,0,1-3.315-5.562c.266.008.515.02.785.026a15.326,15.326,0,0,0,1.845,1.091,40.754,40.754,0,0,0,2.53,5.927A10.254,10.254,0,0,1,117.951,48.683ZM119.7,45.24c.332.108.675.216,1.033.316.467.133.924.233,1.386.343-.3.969-.573,1.913-.838,2.85C120.649,47.509,120.107,46.294,119.7,45.24Zm10.017,15.627c-4.385,6.4-7.394,8.054-8.41,7.623s-1.612-3.622.049-11.189c.18-.822.4-1.691.632-2.564a23.883,23.883,0,0,0,7.274,3.106c.722.172,1.477.232,2.22.337C130.885,59.106,130.288,60.028,129.716,60.868Zm-4.289-6.413a39.087,39.087,0,0,0,10.555.819l.131,1.25A21.907,21.907,0,0,1,125.427,54.455Zm11.61-7.8A42.278,42.278,0,0,0,148.8,43.431q1.268,2,2.378,3.915c-.092.317-.17.636-.282.95a20.154,20.154,0,0,1-3.311,1.928,37.391,37.391,0,0,1-9.873,2.926Zm.879,8.416a38.969,38.969,0,0,0,10.166-2.951,21.827,21.827,0,0,1-10.035,4.206Zm16.172-2.345c3.4,6.968,3.57,10.208,2.684,10.864s-4.2-.253-9.974-5.464c-.625-.567-1.293-1.207-1.95-1.83a23.811,23.811,0,0,0,6.216-4.152l.053.038c.052-.075.1-.152.151-.229.559-.528,1.034-1.131,1.538-1.71C153.259,51.089,153.7,51.924,154.087,52.727Zm-3.105-10.352c.357-.189.7-.38,1.025-.574-.017.634-.073,1.348-.153,2.085C151.569,43.384,151.28,42.884,150.982,42.375Zm3.232,2.549a8.275,8.275,0,0,1-.655.912,26.909,26.909,0,0,0,.407-5.383,14.5,14.5,0,0,0,2.249-2.214c.08-.021.154-.044.233-.066A21.576,21.576,0,0,1,154.214,44.924Zm4.423-9.655a23.746,23.746,0,0,0-.088-2.887,23.473,23.473,0,0,0-1.964-7.008c1.213.049,2.405.107,3.515.187,7.778.568,10.727,2.328,10.859,3.416s-2.358,3.2-9.79,5.551C160.362,34.783,159.507,35.028,158.637,35.27Z" transform="translate(-96.551 0)" fill="#004f83"/>
</svg>
