<svg version="1.2" xmlns="http://www.w3.org/2000/svg" viewBox="0 0 614 764" width="614" height="764">
	<title>6292-ai</title>
	<style>
		.s0 { fill: #2085b7 } 
		.s1 { fill: #d5e9f2 } 
		.s2 { fill: #a8d7e9 } 
		.s3 { fill: #002b43 } 
		.s4 { fill: #000f16 } 
		.s5 { fill: #ffffff } 
		.s6 { fill: #3aedb1 } 
	</style>
	<g id="Layer 2">
		<g id="&lt;Group&gt;">
			<path id="&lt;Path&gt;" class="s0" d="m494.3 736.5c0 15.1-78.6 27.4-175.6 27.4-97 0-175.6-12.3-175.6-27.4 0-15.2 78.6-27.4 175.6-27.4 97 0 175.6 12.2 175.6 27.4z"/>
			<path id="&lt;Path&gt;" class="s1" d="m504.4 312.3l-40.5 51.8h-157.6-157.7l-40.4-51.8c0 0-0.4-83.3 41.5-144.2 45.6-66.4 156.6-66.4 156.6-66.4 0 0 111 0 156.6 66.4 41.9 60.9 41.5 144.2 41.5 144.2z"/>
			<path id="&lt;Path&gt;" class="s2" d="m504.4 312.3l-40.4 51.8h-157.7-157.6l-13.4-17.1h134.7 157.7l40.4-51.9c0 0 0.4-83.2-41.5-144.1-9.8-14.3-22.7-25.6-36.8-34.4 27.3 9.6 55.3 25.5 73.1 51.5 41.9 60.9 41.5 144.2 41.5 144.2z"/>
			<path id="&lt;Path&gt;" class="s3" d="m451.5 299.8h-145.2-145.2c0 0-1.6-83.3 44.6-118.2 42.5-32.2 158.7-32.2 201.2 0 46.1 34.9 44.6 118.2 44.6 118.2z"/>
			<path id="&lt;Path&gt;" class="s4" d="m161.1 299.8c0 0-1.6-83.3 44.6-118.2 42.5-32.2 158.7-32.2 201.2 0 46.1 34.9 44.6 118.2 44.6 118.2h-1.2c-2.9-27.2-12.3-72.7-43.4-96.2-42.5-32.1-158.7-32.1-201.2 0-31.1 23.5-40.6 69-43.4 96.2z"/>
			<path id="&lt;Path&gt;" class="s1" d="m347.2 114.2c0 3.4-2.7 6.2-6.2 6.2h-69.5c-3.4 0-6.2-2.8-6.2-6.2v-21.8c0-3.5 2.8-6.3 6.2-6.3h69.5c3.5 0 6.2 2.8 6.2 6.3z"/>
			<g id="&lt;Group&gt;">
				<path id="&lt;Path&gt;" class="s1" d="m287.8 102.7l9.3-87.1h12.5l15.2 87.7z"/>
				<path id="&lt;Path&gt;" class="s1" d="m318.7 15.6c0 8.3-6.7 15.1-15 15.1-8.3 0-15.1-6.8-15.1-15.1 0-8.3 6.8-15 15.1-15 8.3 0 15 6.7 15 15z"/>
				<path id="&lt;Path&gt;" class="s2" d="m318.7 15.6c0 8.3-6.7 15.1-15 15.1-6 0-11.1-3.5-13.6-8.5 2.6 2 5.9 3.3 9.4 3.3 8.3 0 15.1-6.8 15.1-15.1 0-2.3-0.6-4.5-1.5-6.5 3.4 2.7 5.6 7 5.6 11.7z"/>
			</g>
			<path id="&lt;Path&gt;" class="s2" d="m108.2 312.3h396.2l-40.5 51.8h-315.3z"/>
			<path id="&lt;Path&gt;" class="s2" d="m347.2 104c0 2.2-1.4 3.9-3.1 3.9h-34.7c-1.7 0-3.1-1.7-3.1-3.9v-13.9c0-2.2 1.4-4 3.1-4h34.7c1.7 0 3.1 1.8 3.1 4z"/>
			<path id="&lt;Path&gt;" class="s5" d="m213.3 151.1c-14.2 6.4-22.2 17.7-32.7 28.2-4 4.1-12.1 10.1-16.9 3.1-4.4-6.3 2.4-16.3 6-21.2 4.3-5.8 9.3-11 14.9-15.4 7.1-6.8 18.1-13.2 24.2-16.1 7.5-3.5 30.4-9.1 35.4 0.6 6 11.4-23.9 17.7-30.9 20.8z"/>
			<path id="&lt;Path&gt;" class="s1" d="m503.7 566.4c-17.3 51.8-44.6 87.1-44.6 87.1l-75.5 29.1-76.6 7.1v0.1c0 0-0.6-0.1-0.7-0.1-0.2 0-0.7 0.1-0.7 0.1v-0.1l-76.7-7.1-75.4-29.1c0 0-21.8-24.9-44.6-87.1-14.9-40.5-17.6-84.8-17.6-84.8l61.7-106.3h152.6 1.4 152.6l61.6 106.3c0 0-3.9 43.9-17.5 84.8z"/>
			<path id="&lt;Path&gt;" class="s2" d="m521.2 481.6c0 0-3.9 43.9-17.5 84.8-17.3 51.8-44.6 87.1-44.6 87.1l-75.5 29.1-76.6 7.1v0.1c0 0-0.6-0.1-0.7-0.1-0.2 0-0.7 0.1-0.7 0.1v-0.1l-35.6-3.3 41-3.8c0 0 59.2-17 75.5-29.1 19.6-14.6 27.3-35.3 44.6-87.1 13.6-40.9 17.5-84.8 17.5-84.8l-61.6-106.3h72.6z"/>
			<path id="&lt;Path&gt;" class="s2" d="m91.3 481.6h429.9l-16.8 31.9z"/>
			<path id="&lt;Path&gt;" class="s5" d="m175.4 600.4c-20.8 11.1-32.1-29.7-35.3-41.3-2.8-9.9-8.7-26-6.2-37 0.2-4.3 1.5-8.5 4.1-11.8 7-8.9 22.3-7.2 31.3-3 17.6 8.1 7.1 29.4 8.3 44.8 0.9 11.4 12 40.7-2.2 48.3z"/>
			<path id="&lt;Path&gt;" class="s5" d="m186.8 436.7c-6.2 12-11.7 34.1-29.9 31.2-31.5-5.1-9.4-56.9 11.5-69.6 9.3-9.7 22.5-14.1 31.8-0.8 9.2 13.1-7.8 28.2-13.4 39.2z"/>
			<path id="&lt;Path&gt;" class="s1" d="m476.3 376.3c0 0 44.9 9.9 98.5 63.2 54.9 54.5 40.2 113.6 24.2 102.1-21-15.2-65-66.8-65-66.8z"/>
			<path id="&lt;Path&gt;" class="s2" d="m599 541.6c-4.9-3.6-11.1-9.1-17.7-15.6 5.2-17.9-0.3-56.6-37.1-93.2-23.8-23.7-45.9-38.8-63.1-48.3l-4.8-8.2c0 0 44.9 9.9 98.5 63.2 54.9 54.5 40.2 113.6 24.2 102.1z"/>
			<path id="&lt;Path&gt;" class="s1" d="m81.3 472.4c0 0-45.4 50.4-66.9 65-16.3 11-29.3-48.4 27-101.4 55.1-51.9 100.3-60.5 100.3-60.5z"/>
			<path id="&lt;Path&gt;" class="s5" d="m41.4 436c55.1-51.9 100.3-60.5 100.3-60.5l-5.1 8.1c-17.4 9-39.9 23.5-64.4 46.5-37.8 35.6-44.3 74.1-39.6 92.2-6.8 6.3-13.2 11.6-18.2 15.1-16.3 11-29.3-48.4 27-101.4z"/>
			<path id="&lt;Path&gt;" class="s1" d="m226.5 689.8c0 0-0.7 48.9-23.6 46.6-22.9-2.3-50.3-73.7-50.3-73.7z"/>
			<path id="&lt;Path&gt;" class="s2" d="m227.3 689.8c0 0-0.7 48.9-23.6 46.6-4.6-0.5-9.4-3.7-14.1-8.7 16.1-4.2 18.2-38 18.5-45z"/>
			<path id="&lt;Path&gt;" class="s1" d="m467.2 658.1c0 0-21.9 73.3-44.6 77.4-22.6 4-27-44.7-27-44.7z"/>
			<path id="&lt;Path&gt;" class="s2" d="m413.4 682.3c0.8 6.9 5.5 40.5 21.9 43.5-4.3 5.3-8.9 8.9-13.4 9.7-22.7 4.1-27.1-44.7-27.1-44.7z"/>
			<path id="&lt;Path&gt;" class="s6" d="m362.9 287.4c-2 0-3.7-1.6-3.7-3.6 0-0.2-0.7-16.4-11-24.9-9.9-8.2-27.7-10.9-36.4-10.9-8.1-0.3-26.6 2.7-36.5 10.9-10.3 8.5-10.9 24.7-10.9 24.9-0.1 2-1.8 3.6-3.7 3.6-2-0.1-3.6-1.8-3.6-3.8 0.1-0.8 0.7-19.7 13.6-30.3 13.2-10.9 30.2-12.5 39.3-12.5 10.9 0 29.6 1.6 42.8 12.5 12.9 10.6 13.6 29.5 13.6 30.3 0.1 2-1.5 3.7-3.5 3.8z"/>
			<path id="&lt;Path&gt;" class="s6" d="m252 215.1c0.7 3.1-1.5 6.2-5 7l-30.2 7c-3.5 0.8-6.9-1.1-7.6-4.1-0.7-3.1 1.5-6.2 5-7l30.2-7c3.5-0.8 6.9 1.1 7.6 4.1z"/>
			<path id="&lt;Path&gt;" class="s6" d="m406.7 224.6c-0.6 3-4 4.9-7.5 4.2l-30.3-6.4c-3.5-0.7-5.8-3.8-5.2-6.9 0.7-3 4-4.9 7.5-4.2l30.4 6.4c3.5 0.7 5.8 3.8 5.1 6.9z"/>
		</g>
	</g>
</svg>